<?xml version="1.0" standalone="no"?>
<!DOCTYPE svg PUBLIC "-//W3C//DTD SVG 20010904//EN"
 "http://www.w3.org/TR/2001/REC-SVG-20010904/DTD/svg10.dtd">
<svg version="1.0" xmlns="http://www.w3.org/2000/svg"
 width="563.000000pt" height="443.000000pt" viewBox="0 0 563.000000 443.000000"
 preserveAspectRatio="xMidYMid meet">

<g transform="translate(0.000000,443.000000) scale(0.100000,-0.100000)"
fill="#000000" stroke="none">
<path d="M3150 2964 c-187 -33 -441 -119 -587 -200 -78 -43 -168 -125 -195
-177 -30 -60 -22 -144 19 -194 35 -44 109 -104 189 -153 81 -50 168 -139 182
-188 11 -35 10 -46 -5 -77 -45 -94 -236 -157 -474 -156 -224 1 -301 49 -197
122 37 26 48 38 48 57 0 18 -32 15 -95 -9 -140 -52 -171 -149 -74 -234 49 -43
183 -110 309 -155 440 -157 946 -185 1211 -66 211 94 299 276 206 423 -84 132
-318 281 -642 408 -235 93 -385 188 -385 244 0 43 72 92 216 146 87 33 106 32
58 -4 -105 -78 -111 -107 -19 -105 124 2 412 127 488 212 28 30 19 74 -18 91
-29 15 -182 24 -235 15z"/>
</g>
</svg>
